<?xml version="1.0" encoding="UTF-8" standalone="no"?>
<svg
   xmlns:dc="http://purl.org/dc/elements/1.1/"
   xmlns:cc="http://creativecommons.org/ns#"
   xmlns:rdf="http://www.w3.org/1999/02/22-rdf-syntax-ns#"
   xmlns:svg="http://www.w3.org/2000/svg"
   xmlns="http://www.w3.org/2000/svg"
   xmlns:xlink="http://www.w3.org/1999/xlink"
   xmlns:sodipodi="http://sodipodi.sourceforge.net/DTD/sodipodi-0.dtd"
   xmlns:inkscape="http://www.inkscape.org/namespaces/inkscape"
   height="128"
   width="128"
   id="svg6"
   version="1.1"
   y="0px"
   x="0px"
   viewBox="0 0 127.99999 128"
   data-name="Layer 1"
   fill="#000000"
   sodipodi:docname="redback_v2.svg"
   inkscape:version="0.92+devel unknown"
   inkscape:export-filename="/home/fhauser/Dropbox/sa_aufgabenstellung/redback_v2.png"
   inkscape:export-xdpi="384"
   inkscape:export-ydpi="384">
  <sodipodi:namedview
     pagecolor="#ffffff"
     bordercolor="#666666"
     inkscape:document-rotation="0"
     borderopacity="1"
     objecttolerance="10"
     gridtolerance="10"
     guidetolerance="10"
     inkscape:pageopacity="0"
     inkscape:pageshadow="2"
     inkscape:window-width="1280"
     inkscape:window-height="661"
     id="namedview35"
     showgrid="false"
     inkscape:zoom="3.9101562"
     inkscape:cx="56.30576"
     inkscape:cy="53.768516"
     inkscape:window-x="0"
     inkscape:window-y="0"
     inkscape:window-maximized="1"
     inkscape:current-layer="svg6" />
  <metadata
     id="metadata12">
    <rdf:RDF>
      <cc:Work
         rdf:about="">
        <dc:format>image/svg+xml</dc:format>
        <dc:type
           rdf:resource="http://purl.org/dc/dcmitype/StillImage" />
        <dc:title>05</dc:title>
      </cc:Work>
    </rdf:RDF>
  </metadata>
  <defs
     id="defs10">
    <linearGradient
       id="linearGradient4309">
      <stop
         style="stop-color:#ff1b00;stop-opacity:1"
         offset="0"
         id="stop4305" />
      <stop
         style="stop-color:#ff0000;stop-opacity:0.27217612"
         offset="1"
         id="stop4307" />
    </linearGradient>
    <linearGradient
       id="linearGradient4298">
      <stop
         style="stop-color:#000000;stop-opacity:0.24367268"
         offset="0"
         id="stop4294" />
      <stop
         style="stop-color:#000000;stop-opacity:0;"
         offset="1"
         id="stop4296" />
    </linearGradient>
    <linearGradient
       id="linearGradient5819">
      <stop
         style="stop-color:#000000;stop-opacity:1;"
         offset="0"
         id="stop5815" />
      <stop
         style="stop-color:#000000;stop-opacity:0.66943359"
         offset="1"
         id="stop5817" />
    </linearGradient>
    <linearGradient
       id="linearGradient4292">
      <stop
         id="stop4288"
         offset="0"
         style="stop-color:#ff0000;stop-opacity:1" />
      <stop
         id="stop4290"
         offset="1"
         style="stop-color:#aa0000;stop-opacity:0;" />
    </linearGradient>
    <linearGradient
       id="linearGradient4280">
      <stop
         id="stop4276"
         offset="0"
         style="stop-color:#ff1b00;stop-opacity:1" />
      <stop
         id="stop4278"
         offset="1"
         style="stop-color:#ff0000;stop-opacity:0.27217612" />
    </linearGradient>
    <filter
       height="1.0173842"
       y="-0.008692096"
       width="1.038745"
       x="-0.01937248"
       id="filter4308"
       style="color-interpolation-filters:sRGB">
      <feGaussianBlur
         id="feGaussianBlur4310"
         stdDeviation="0.0635748" />
    </filter>
    <clipPath
       id="clipPath4318"
       clipPathUnits="userSpaceOnUse">
      <use
         height="100%"
         width="100%"
         id="use4320"
         xlink:href="#g4314"
         y="0"
         x="0" />
    </clipPath>
    <radialGradient
       gradientTransform="matrix(0.35143606,0.35086487,-0.46531158,0.46606908,52.860442,10.888605)"
       gradientUnits="userSpaceOnUse"
       r="49.118652"
       fy="76.585236"
       fx="71.02002"
       cy="76.585236"
       cx="71.02002"
       id="radialGradient4382"
       xlink:href="#linearGradient4298" />
    <radialGradient
       r="3.9638207"
       fy="59.124023"
       fx="35.692024"
       cy="59.124023"
       cx="35.692024"
       gradientTransform="matrix(3.5907114,-0.05329202,0.1232324,8.3031496,-100.17074,-429.88949)"
       gradientUnits="userSpaceOnUse"
       id="radialGradient4400"
       xlink:href="#linearGradient4292" />
    <radialGradient
       r="3.9638207"
       fy="59.124023"
       fx="35.692024"
       cy="59.124023"
       cx="35.692024"
       gradientTransform="matrix(3.5907114,-0.05329202,0.1232324,8.3031496,-100.17074,-429.88949)"
       gradientUnits="userSpaceOnUse"
       id="radialGradient4402"
       xlink:href="#linearGradient4280" />
    <filter
       height="1.012"
       y="-0.0059999886"
       width="1.012"
       x="-0.0059999953"
       id="filter4369"
       style="color-interpolation-filters:sRGB">
      <feGaussianBlur
         id="feGaussianBlur4371"
         stdDeviation="0.24579349" />
    </filter>
    <radialGradient
       r="35.710449"
       fy="47.887398"
       fx="34.646168"
       cy="47.887398"
       cx="34.646168"
       gradientTransform="matrix(2.5970649,0.02431356,-0.08331824,3.5251591,-51.469781,-115.77795)"
       gradientUnits="userSpaceOnUse"
       id="radialGradient5813"
       xlink:href="#linearGradient5819" />
    <radialGradient
       inkscape:collect="always"
       xlink:href="#linearGradient4309"
       id="radialGradient4303"
       gradientUnits="userSpaceOnUse"
       gradientTransform="matrix(3.5907114,-0.05329202,0.1232324,8.3031496,-100.17074,-429.88949)"
       cx="35.692024"
       cy="59.124023"
       fx="35.692024"
       fy="59.124023"
       r="3.9638207" />
  </defs>
  <title
     id="title2">05</title>
  <g
     transform="translate(14.897999,14.784468)"
     id="layer1">
    <rect
       y="0.1937561"
       x="0"
       height="98.237305"
       width="98.237305"
       id="rect4344"
       style="fill:url(#radialGradient4382);fill-opacity:1;stroke:none;stroke-width:0.98237306" />
  </g>
  <g
     transform="translate(14.897999,14.784468)"
     id="layer2">
    <g
       transform="matrix(0.92164982,0.91952342,-0.92164982,0.91952342,55.404385,-22.01204)"
       clip-path="url(#clipPath4318)"
       id="g4316">
      <g
         id="g4314">
        <path
           style="filter:url(#filter4369);fill-opacity:1;fill:url(#radialGradient5813)"
           d="m 70.260765,18.71 c -0.17,-0.16 -0.6,-0.58 -3.38,-0.2 -0.715567,-0.04539 -1.433993,-0.0051 -2.14,0.12 -1.712957,0.501726 -3.360948,1.203213 -4.91,2.09 -0.254699,0.140922 -0.532303,0.235714 -0.82,0.28 -0.845195,-0.209211 -1.739617,-0.01332 -2.42,0.53 -1.733967,1.134511 -3.584535,2.07991 -5.52,2.82 -0.77398,0.300015 -1.525844,0.654226 -2.25,1.06 -1.947402,0.818101 -3.784966,1.876296 -5.47,3.15 0.09374,-0.260039 0.144408,-0.533637 0.15,-0.81 v -0.07 c 2.79,-2.26 4.28,-7 4.34,-7.22 0.005,-0.04653 0.005,-0.09347 0,-0.14 0.503674,-0.637186 0.911332,-1.344691 1.21,-2.1 0.39,-1 3.11,-4.16 4.42,-5.67 l 0.77,-0.9 c 0.315671,-0.363463 0.489651,-0.828592 0.49,-1.31 0.162812,-0.493291 0.387967,-0.963765 0.67,-1.4 1.4,-1.75 4.18,-4.86 5.73,-5.4 0.09456,-0.033338 0.180122,-0.088099 0.25,-0.16 2,-2 1.69,-2.66 1.6,-2.89 -0.08045,-0.2292691 -0.260731,-0.4095522 -0.49,-0.49 -0.22,-0.06 -0.8,-0.24 -3.1,1.38 -0.654475,0.2889114 -1.272168,0.6548275 -1.84,1.09 -1.647446,1.4985126 -3.206723,3.091179 -4.67,4.77 l -0.06,0.09 c -0.14486,0.25519 -0.334564,0.482157 -0.56,0.67 -0.878848,0.174537 -1.621771,0.757732 -2,1.57 -1.325972,2.355506 -2.781539,4.635673 -4.36,6.83 -0.39,0.39 -1,1.2 -1.41,1.66 -0.09255,0.05033 -0.171484,0.122395 -0.23,0.21 -0.08,0.12 -2,3.07 -2.54,4.24 -0.384671,0.920999 -0.718506,1.862414 -1,2.82 -0.46946,0.06258 -0.890698,0.320404 -1.16,0.71 l -0.43,0.49 c -0.238825,-0.664291 -0.277078,-1.384139 -0.11,-2.07 0.992276,-0.858575 1.484838,-2.159541 1.31,-3.46 -0.108317,-0.569881 -0.60007,-0.986622 -1.18,-1 -0.724596,2.01e-4 -1.342498,0.524995 -1.46,1.24 -0.07,0.31 -0.32,0.53 -0.72,0.86 -0.386359,0.275717 -0.724283,0.613641 -1,1 -0.410282,0.983468 -0.598096,2.045469 -0.55,3.11 h -0.15 -0.28 c 0.105012,-1.061099 -0.04942,-2.131823 -0.45,-3.12 -0.275859,-0.386239 -0.613761,-0.724141 -1,-1 -0.4,-0.33 -0.65,-0.55 -0.72,-0.86 -0.115033,-0.678722 -0.68285,-1.188514 -1.37,-1.23 -0.583714,0.0087 -1.080903,0.426506 -1.19,1 -0.16471,1.27854 0.31467,2.555638 1.28,3.41 0.208921,0.687819 0.208921,1.422181 0,2.11 l -0.67,-0.52 c -0.262329,-0.361432 -0.658496,-0.602734 -1.1,-0.67 -0.2,-0.63 -0.65,-1.95 -1,-2.83 -0.53,-1.18 -2.46,-4.12 -2.54,-4.24 v 0 0 c 0,-0.05 -1.06,-1.28 -1.6,-1.81 -1.578223,-2.194488 -3.033782,-4.474642 -4.36,-6.83 -0.367619,-0.834024 -1.11692,-1.437938 -2.01,-1.62 -0.234963,-0.169706 -0.438086,-0.379601 -0.6,-0.62 l -0.06,-0.09 C 16.137538,5.611134 14.578258,4.0184642 12.930765,2.52 12.362933,2.0848275 11.74524,1.7189114 11.090765,1.43 8.8007645,-0.2 8.2607645,0 8.0007645,0 c -0.236394,0.068353 -0.428177,0.2416962 -0.52,0.47 -0.09,0.22 -0.35,0.88 1.3,2.85 0.07367,0.090609 0.170395,0.1596964 0.28,0.2 1.5500005,0.54 4.3300005,3.65 5.7300005,5.4 0.281748,0.436395 0.506885,0.906831 0.67,1.4 3.49e-4,0.481408 0.174329,0.946537 0.49,1.31 0.29,0.34 0.76,0.86 1.3,1.46 1.42,1.57 3.8,4.2 4.15,5.1 0.336978,0.871739 0.724297,1.723172 1.16,2.55 0.05457,0.09858 0.133827,0.181288 0.23,0.24 0.782102,2.573107 2.218995,4.899015 4.17,6.75 0.01181,0.285989 0.07622,0.567352 0.19,0.83 -1.699839,-1.210314 -3.535701,-2.217186 -5.47,-3 -0.724141,-0.405803 -1.476007,-0.760016 -2.25,-1.06 -1.935465,-0.74009 -3.786033,-1.685489 -5.52,-2.82 -0.681058,-0.541909 -1.574784,-0.737643 -2.42,-0.53 -0.295124,-0.04552 -0.579654,-0.143747 -0.84,-0.29 -1.5429455,-0.882389 -3.1841885,-1.580504 -4.8900005,-2.08 -0.706094,-0.124347 -1.424431,-0.164628 -2.14,-0.12 -2.77999996,-0.38 -3.21999996,0 -3.37999996,0.2 -0.178216,0.167125 -0.270293,0.406526 -0.25,0.65 0.07,0.68 0.93,1.22 2.55999996,1.6 0.07928,0.01513 0.160716,0.01513 0.24,0 1.62,-0.21 4.47,1.29 5.47,1.89 l 0.55,0.28 c 0.451645,0.259298 0.868345,0.575184 1.2400005,0.94 0.212026,0.421476 0.566228,0.754425 1,0.94 1.47,0.61 4.91,2 5.91,2.91 0.783439,0.668071 1.695562,1.168377 2.68,1.47 h 0.18 v 0 c 1.848645,1.554962 3.90093,2.850256 6.1,3.85 -2.592636,0.556092 -5.150373,1.263978 -7.66,2.12 v 0 0 c -0.06149,0.02435 -0.118841,0.05808 -0.17,0.1 v 0 c -0.619624,0.567908 -1.19777,1.179473 -1.73,1.83 -1.302059,1.613177 -2.773858,3.081623 -4.39,4.38 -0.744093,0.485097 -1.215014,1.29345 -1.27,2.18 -0.132616,0.266562 -0.312147,0.507066 -0.53,0.71 -1.3158355,1.192187 -2.4871835,2.534706 -3.4900005,4 -0.338862,0.63316 -0.600724,1.304602 -0.78,2 -1.22,2.53 -1,3.07 -0.86,3.28 0.105431,0.223824 0.308492,0.386272 0.55,0.44 h 0.19 c 0.62,0 1.34,-0.65 2.15,-1.94 0.0442,-0.07032 0.07474,-0.148353 0.09,-0.23 0.28,-1.61 2.5800005,-3.82 3.4400005,-4.66 l 0.44,-0.43 c 0.387423,-0.34668 0.817576,-0.642411 1.28,-0.88 0.474402,-0.08019 0.903995,-0.32872 1.21,-0.7 0.4,-0.47 0.9,-1.17 1.42,-1.9 0.788007,-1.262797 1.74712,-2.410367 2.85,-3.41 0.75,-0.44 1.29,-0.8 1.62,-1 h 0.13 c 2.597198,-0.299441 5.148894,-0.910505 7.6,-1.82 0.07,0.41 0.16,0.8 0.24,1.12 -3.684448,1.89113 -6.481059,5.150852 -7.79,9.08 -0.05454,0.02597 -0.105052,0.05965 -0.15,0.1 -0.22,0.23 -5.5,5.65 -7.29,8.66 l -0.62,0.9 c -0.06124,0.08122 -0.128073,0.158071 -0.2,0.23 -0.336232,0.293689 -0.535424,0.713802 -0.55,1.16 v 0.21 c -0.117326,0.145965 -0.164833,0.335995 -0.13,0.52 0,0 0.34,1.66 0.39,2.34 0.05,0.68 -0.78,9.86 -1.35,13 -0.239475,0.837567 -0.07695,1.738838 0.44,2.44 0.07026,0.280933 0.09057,0.572033 0.06,0.86 -0.0031,0.0366 -0.0031,0.0734 0,0.11 0.03455,2.227601 0.198161,4.451328 0.49,6.66 0.153765,0.691905 0.388727,1.363223 0.7,2 0.71,2.71 1.27,3 1.48,3.05 0.10396,0.04595 0.216337,0.06979 0.33,0.07 0.128827,6.17e-4 0.25585,-0.03028 0.37,-0.09 0.22,-0.12 0.89,-0.47 0.56,-3.2 -0.01247,-0.08864 -0.04311,-0.173753 -0.09,-0.25 -0.83,-1.41 -1,-5.58 -0.89,-7.83 0.06965,-0.514847 0.204046,-1.018835 0.4,-1.5 0.310713,-0.36893 0.477631,-0.83772 0.47,-1.32 0,-2.48 0.22,-12.24 0.63,-13.41 0.268263,-0.757567 0.452698,-1.54225 0.55,-2.34 0.02513,-0.02146 0.04854,-0.04487 0.07,-0.07 0.197052,-0.349379 0.338735,-0.727201 0.42,-1.12 0.13,-0.58 2.19,-2.87 3.07,-3.84 l 0.21,-0.23 c 0.873051,6.138473 5.251525,11.201083 11.2,12.95 1.428436,0.49015 2.929871,0.733626 4.44,0.72 1.470123,0.0032 2.930371,-0.240206 4.32,-0.72 v 0 c 5.931762,-1.735083 10.31,-6.765566 11.21,-12.88 l 0.14,0.16 c 0.87,1 2.91,3.28 3,3.87 0.07413,0.349528 0.198774,0.686396 0.37,1 0.187763,0.860547 0.438437,1.706152 0.75,2.53 0.36,1 0.5,9.08 0.5,13.15 -0.0076,0.48228 0.159287,0.95107 0.47,1.32 0.196569,0.480959 0.330987,0.985026 0.4,1.5 0.06,2.24 -0.06,6.41 -0.89,7.83 -0.05248,0.08821 -0.08332,0.187584 -0.09,0.29 -0.17,3 0.46,3.29 0.69,3.42 0.114004,0.06011 0.241125,0.09103 0.37,0.09 0.113694,8.5e-5 0.226132,-0.02376 0.33,-0.07 0.21,-0.09 0.77,-0.34 1.48,-3.05 0.311273,-0.636777 0.546235,-1.308095 0.7,-2 0.29195,-2.20866 0.455558,-4.432394 0.49,-6.66 0.0029,-0.03661 0.0029,-0.07339 0,-0.11 -0.03078,-0.287964 -0.01047,-0.5791 0.06,-0.86 0.516951,-0.701162 0.679475,-1.602433 0.44,-2.44 -0.57,-3.16 -1.39,-12.4 -1.35,-13 0.04,-0.6 0.26,-2.44 0.26,-2.45 0,-0.01 0,0 0,0 V 59.3 58.7 c -0.01458,-0.446198 -0.213768,-0.866311 -0.55,-1.16 -0.07144,-0.06884 -0.138257,-0.142337 -0.2,-0.22 l -0.6,-0.87 c -1.81,-3 -7.14,-8.64 -7.36,-8.88 v 0 c -1.344439,-3.944819 -4.190299,-7.200311 -7.92,-9.06 0.08,-0.28 0.18,-0.62 0.27,-1 2.362335,0.881558 4.830012,1.449729 7.34,1.69 0.24,0.12 0.89,0.46 1.86,1 1.012103,0.915626 1.881705,1.97735 2.58,3.15 0.52,0.75 1,1.47 1.44,2 0.306005,0.37128 0.735598,0.619805 1.21,0.7 0.462367,0.237683 0.892509,0.533406 1.28,0.88 l 0.44,0.43 c 0.87,0.83 3.16,3 3.44,4.66 0.01718,0.09368 0.05473,0.182439 0.11,0.26 1.3,1.86 2,2.12 2.37,2.12 0.06977,0.0081 0.140235,0.0081 0.21,0 0.241508,-0.05373 0.444569,-0.216176 0.55,-0.44 0.1,-0.21 0.36,-0.75 -0.86,-3.28 -0.179276,-0.695398 -0.441138,-1.36684 -0.78,-2 -1.006298,-1.465562 -2.180987,-2.808063 -3.5,-4 -0.212999,-0.197236 -0.389092,-0.430898 -0.52,-0.69 -0.0611,-0.868937 -0.523139,-1.659939 -1.25,-2.14 -1.615678,-1.298895 -3.087424,-2.767288 -4.39,-4.38 -0.532101,-0.65064 -1.110256,-1.262214 -1.73,-1.83 v 0 c -0.05116,-0.04192 -0.108507,-0.07565 -0.17,-0.1 v 0 0 c -2.65695,-0.9068 -5.382357,-1.59902 -8.15,-2.07 2.434185,-1.217135 4.750698,-2.656588 6.92,-4.3 0.693461,-0.513148 1.360954,-1.060492 2,-1.64 1.171126,-0.692427 2.438144,-1.207995 3.76,-1.53 0.81,-0.25 1.57,-0.49 2.15,-0.73 0.433772,-0.185575 0.787974,-0.518524 1,-0.94 0.35005,-0.396642 0.750051,-0.746223 1.19,-1.04 l 0.55,-0.28 c 1.06,-0.56 3.87,-2.07 5.49,-1.84 0.08583,0.01698 0.174165,0.01698 0.26,0 2.9,-0.78 3,-1.51 3,-1.79 0.01442,-0.258741 -0.09739,-0.508438 -0.3,-0.67 z"
           id="path4" />
        <path
           style="fill:url(#radialGradient4303);fill-opacity:1;stroke:url(#radialGradient4402);stroke-width:0.05162523;filter:url(#filter4308)"
           d="m 31.917555,67.564851 c -0.312333,-0.0733 -0.573417,-0.137843 -0.580187,-0.14343 0.148195,-3.582211 -0.669703,-7.38401 0.520828,-14.522248 l -3.164302,0.06274 c 0.951544,-0.862063 4.229504,-4.533053 5.687025,-5.660535 1.498366,0.598879 5.409153,3.478795 6.554735,4.237608 l -3.080073,0.484091 c -0.520413,6.010978 -0.14613,13.931091 1.062506,15.432299 -0.753228,0.161083 -2.126298,0.783714 -3.622189,0.793407 -2.017044,-0.09378 -2.27287,-0.473176 -3.378343,-0.683936 z"
           id="path4274"
           transform="matrix(1.4090004,0,0,1.4090004,-14.42749,-27.920039)"
           inkscape:connector-curvature="0"
           sodipodi:nodetypes="ccccccccccc" />
      </g>
    </g>
  </g>
</svg>
